<svg width="160" height="58" viewBox="0 0 160 58" fill="none" xmlns="http://www.w3.org/2000/svg">
<path d="M60.1528 34C59.354 34 58.5824 33.8998 57.8381 33.6995C57.0938 33.4991 56.4811 33.2386 56 32.918L57.0348 30.3333C57.4886 30.6239 57.9924 30.8593 58.5461 31.0396C59.1089 31.2099 59.6535 31.2951 60.18 31.2951C60.4886 31.2951 60.7291 31.275 60.9016 31.235C61.0832 31.1849 61.2148 31.1198 61.2965 31.0396C61.3782 30.9495 61.419 30.8443 61.419 30.724C61.419 30.5337 61.3237 30.3834 61.1331 30.2732C60.9425 30.163 60.6883 30.0729 60.3706 30.0027C60.062 29.9226 59.7216 29.8424 59.3494 29.7623C58.9773 29.6721 58.6006 29.5569 58.2193 29.4167C57.8472 29.2764 57.5023 29.0911 57.1846 28.8607C56.8759 28.6302 56.6263 28.3297 56.4357 27.959C56.2451 27.5783 56.1498 27.1075 56.1498 26.5464C56.1498 25.8953 56.3132 25.3042 56.6399 24.7732C56.9758 24.2322 57.4705 23.8015 58.124 23.4809C58.7867 23.1603 59.6081 23 60.5885 23C61.2329 23 61.8683 23.0751 62.4946 23.2254C63.121 23.3757 63.6837 23.6061 64.183 23.9167L63.2163 26.4863C62.7443 26.2259 62.2859 26.0305 61.8411 25.9003C61.4054 25.77 60.9788 25.7049 60.5612 25.7049C60.2526 25.7049 60.0075 25.735 59.826 25.7951C59.6444 25.8552 59.5128 25.9353 59.4311 26.0355C59.3585 26.1357 59.3222 26.2459 59.3222 26.3661C59.3222 26.5464 59.4175 26.6917 59.6081 26.8019C59.7988 26.9021 60.0484 26.9872 60.357 27.0574C60.6747 27.1275 61.0196 27.2026 61.3918 27.2828C61.773 27.3629 62.1497 27.4731 62.5219 27.6134C62.894 27.7536 63.2344 27.939 63.543 28.1694C63.8607 28.3998 64.1149 28.7004 64.3055 29.071C64.4961 29.4417 64.5914 29.9025 64.5914 30.4536C64.5914 31.0947 64.4235 31.6858 64.0877 32.2268C63.7609 32.7577 63.2707 33.1885 62.6172 33.5191C61.9636 33.8397 61.1422 34 60.1528 34Z" fill="black"/>
<path d="M65.5476 33.7596V23.2404H70.1361C71.0256 23.2404 71.7926 23.4007 72.4371 23.7213C73.0907 24.0419 73.5944 24.5027 73.9484 25.1038C74.3025 25.6949 74.4795 26.3962 74.4795 27.2076C74.4795 28.0191 74.3025 28.7204 73.9484 29.3115C73.5944 29.9025 73.0907 30.3634 72.4371 30.694C71.7926 31.0146 71.0256 31.1749 70.1361 31.1749H67.3313L68.7609 29.6571V33.7596H65.5476ZM68.7609 30.0478L67.3313 28.4399H69.9318C70.3766 28.4399 70.7034 28.3297 70.9122 28.1093C71.13 27.8889 71.2389 27.5883 71.2389 27.2076C71.2389 26.827 71.13 26.5264 70.9122 26.306C70.7034 26.0856 70.3766 25.9754 69.9318 25.9754H67.3313L68.7609 24.3675V30.0478Z" fill="black"/>
<path d="M78.4743 27.1475H82.7223V29.7022H78.4743V27.1475ZM78.6921 31.0847H83.4576V33.7596H75.5333V23.2404H83.2806V25.9153H78.6921V31.0847Z" fill="black"/>
<path d="M89.6234 34C88.8609 34 88.1529 33.8698 87.4994 33.6093C86.8549 33.3388 86.2921 32.9581 85.811 32.4672C85.339 31.9763 84.9714 31.3953 84.7082 30.724C84.4449 30.0528 84.3133 29.3115 84.3133 28.5C84.3133 27.6885 84.4449 26.9472 84.7082 26.276C84.9714 25.6047 85.339 25.0237 85.811 24.5328C86.2921 24.0419 86.8549 23.6662 87.4994 23.4057C88.1529 23.1352 88.8609 23 89.6234 23C90.5583 23 91.3844 23.1803 92.1014 23.541C92.8276 23.9016 93.4267 24.4226 93.8987 25.1038L91.87 27.1025C91.5886 26.7117 91.2754 26.4112 90.9305 26.2008C90.5947 25.9804 90.2134 25.8702 89.7868 25.8702C89.4509 25.8702 89.1469 25.9303 88.8745 26.0505C88.6022 26.1708 88.3662 26.3461 88.1665 26.5765C87.9759 26.8069 87.8261 27.0874 87.7172 27.418C87.6083 27.7386 87.5538 28.0993 87.5538 28.5C87.5538 28.9007 87.6083 29.2664 87.7172 29.597C87.8261 29.9176 87.9759 30.1931 88.1665 30.4235C88.3662 30.6539 88.6022 30.8292 88.8745 30.9495C89.1469 31.0697 89.4509 31.1298 89.7868 31.1298C90.2134 31.1298 90.5947 31.0246 90.9305 30.8142C91.2754 30.5938 91.5886 30.2883 91.87 29.8975L93.8987 31.8962C93.4267 32.5674 92.8276 33.0883 92.1014 33.459C91.3844 33.8197 90.5583 34 89.6234 34Z" fill="black"/>
<path d="M94.8265 33.7596V23.2404H98.0398V33.7596H94.8265Z" fill="black"/>
<path d="M98.5518 33.7596L102.718 23.2404H105.877L110.043 33.7596H106.721L103.644 24.9235H104.897L101.82 33.7596H98.5518ZM101.03 31.9262L101.847 29.3716H106.231L107.048 31.9262H101.03Z" fill="black"/>
<path d="M110.556 33.7596V23.2404H113.77V31.0096H118.072V33.7596H110.556Z" fill="black"/>
<path d="M118.96 33.7596V23.2404H122.173V33.7596H118.96Z" fill="black"/>
<path d="M127.273 34C126.475 34 125.703 33.8998 124.959 33.6995C124.214 33.4991 123.602 33.2386 123.121 32.918L124.155 30.3333C124.609 30.6239 125.113 30.8593 125.667 31.0396C126.23 31.2099 126.774 31.2951 127.301 31.2951C127.609 31.2951 127.85 31.275 128.022 31.235C128.204 31.1849 128.335 31.1198 128.417 31.0396C128.499 30.9495 128.54 30.8443 128.54 30.724C128.54 30.5337 128.444 30.3834 128.254 30.2732C128.063 30.163 127.809 30.0729 127.491 30.0027C127.183 29.9226 126.842 29.8424 126.47 29.7623C126.098 29.6721 125.721 29.5569 125.34 29.4167C124.968 29.2764 124.623 29.0911 124.305 28.8607C123.997 28.6302 123.747 28.3297 123.556 27.959C123.366 27.5783 123.27 27.1075 123.27 26.5464C123.27 25.8953 123.434 25.3042 123.761 24.7732C124.096 24.2322 124.591 23.8015 125.245 23.4809C125.907 23.1603 126.729 23 127.709 23C128.354 23 128.989 23.0751 129.615 23.2254C130.242 23.3757 130.804 23.6061 131.304 23.9167L130.337 26.4863C129.865 26.2259 129.407 26.0305 128.962 25.9003C128.526 25.77 128.099 25.7049 127.682 25.7049C127.373 25.7049 127.128 25.735 126.947 25.7951C126.765 25.8552 126.633 25.9353 126.552 26.0355C126.479 26.1357 126.443 26.2459 126.443 26.3661C126.443 26.5464 126.538 26.6917 126.729 26.8019C126.919 26.9021 127.169 26.9872 127.478 27.0574C127.795 27.1275 128.14 27.2026 128.512 27.2828C128.894 27.3629 129.27 27.4731 129.643 27.6134C130.015 27.7536 130.355 27.939 130.664 28.1694C130.981 28.3998 131.236 28.7004 131.426 29.071C131.617 29.4417 131.712 29.9025 131.712 30.4536C131.712 31.0947 131.544 31.6858 131.208 32.2268C130.882 32.7577 130.391 33.1885 129.738 33.5191C129.084 33.8397 128.263 34 127.273 34Z" fill="black"/>
<path d="M134.605 33.7596V25.9904H131.814V23.2404H140.609V25.9904H137.818V33.7596H134.605Z" fill="black"/>
<path d="M144.385 27.1475H148.633V29.7022H144.385V27.1475ZM144.603 31.0847H149.368V33.7596H141.444V23.2404H149.191V25.9153H144.603V31.0847Z" fill="black"/>
<path d="M150.605 33.7596V23.2404H153.247L158.094 29.6421H156.868V23.2404H160V33.7596H157.359L152.511 27.3579H153.737V33.7596H150.605Z" fill="black"/>
<path d="M56 19.6503V4.34973H62.891C64.227 4.34973 65.3789 4.58288 66.3468 5.04918C67.3283 5.51548 68.0848 6.18579 68.6165 7.06011C69.1482 7.91985 69.414 8.93989 69.414 10.1202C69.414 11.3005 69.1482 12.3206 68.6165 13.1803C68.0848 14.0255 67.3283 14.674 66.3468 15.1257C65.3789 15.5774 64.227 15.8033 62.891 15.8033H58.6787L60.8258 13.6831V19.6503H56ZM64.5678 19.6503L61.0507 14.0765H66.1627L69.7207 19.6503H64.5678ZM60.8258 14.2514L58.6787 11.9126H62.5843C63.2523 11.9126 63.743 11.7523 64.0566 11.4317C64.3837 11.1111 64.5473 10.674 64.5473 10.1202C64.5473 9.56648 64.3837 9.12933 64.0566 8.80874C63.743 8.48816 63.2523 8.32787 62.5843 8.32787H58.6787L60.8258 5.98907V14.2514Z" fill="black"/>
<path d="M78.7407 20C77.582 20 76.5051 19.8033 75.5099 19.4098C74.5284 19.0164 73.6764 18.4627 72.9539 17.7486C72.2314 17.02 71.6657 16.1676 71.2567 15.1913C70.8614 14.2149 70.6637 13.1512 70.6637 12C70.6637 10.8342 70.8614 9.77049 71.2567 8.80874C71.6657 7.83242 72.2314 6.98725 72.9539 6.27322C73.6764 5.54463 74.5284 4.98361 75.5099 4.59016C76.5051 4.19672 77.582 4 78.7407 4C79.9131 4 80.99 4.19672 81.9715 4.59016C82.953 4.98361 83.805 5.54463 84.5275 6.27322C85.25 6.98725 85.809 7.83242 86.2043 8.80874C86.6133 9.77049 86.8177 10.8342 86.8177 12C86.8177 13.1512 86.6133 14.2149 86.2043 15.1913C85.809 16.1676 85.25 17.02 84.5275 17.7486C83.805 18.4627 82.953 19.0164 81.9715 19.4098C80.99 19.8033 79.9131 20 78.7407 20ZM78.7407 15.8251C79.1906 15.8251 79.6064 15.7377 79.9881 15.5628C80.3834 15.388 80.7242 15.1403 81.0105 14.8197C81.3104 14.4845 81.5421 14.0838 81.7057 13.6175C81.8693 13.1366 81.9511 12.5975 81.9511 12C81.9511 11.4025 81.8693 10.8707 81.7057 10.4044C81.5421 9.9235 81.3104 9.52277 81.0105 9.20219C80.7242 8.86703 80.3834 8.61202 79.9881 8.43716C79.6064 8.26229 79.1906 8.17486 78.7407 8.17486C78.2909 8.17486 77.8683 8.26229 77.4729 8.43716C77.0912 8.61202 76.7504 8.86703 76.4505 9.20219C76.1643 9.52277 75.9393 9.9235 75.7757 10.4044C75.6122 10.8707 75.5304 11.4025 75.5304 12C75.5304 12.5975 75.6122 13.1366 75.7757 13.6175C75.9393 14.0838 76.1643 14.4845 76.4505 14.8197C76.7504 15.1403 77.0912 15.388 77.4729 15.5628C77.8683 15.7377 78.2909 15.8251 78.7407 15.8251Z" fill="black"/>
<path d="M96.0737 20C94.915 20 93.838 19.8033 92.8429 19.4098C91.8614 19.0164 91.0094 18.4627 90.2869 17.7486C89.5644 17.02 88.9986 16.1676 88.5897 15.1913C88.1944 14.2149 87.9967 13.1512 87.9967 12C87.9967 10.8342 88.1944 9.77049 88.5897 8.80874C88.9986 7.83242 89.5644 6.98725 90.2869 6.27322C91.0094 5.54463 91.8614 4.98361 92.8429 4.59016C93.838 4.19672 94.915 4 96.0737 4C97.2461 4 98.323 4.19672 99.3045 4.59016C100.286 4.98361 101.138 5.54463 101.861 6.27322C102.583 6.98725 103.142 7.83242 103.537 8.80874C103.946 9.77049 104.151 10.8342 104.151 12C104.151 13.1512 103.946 14.2149 103.537 15.1913C103.142 16.1676 102.583 17.02 101.861 17.7486C101.138 18.4627 100.286 19.0164 99.3045 19.4098C98.323 19.8033 97.2461 20 96.0737 20ZM96.0737 15.8251C96.5236 15.8251 96.9393 15.7377 97.321 15.5628C97.7164 15.388 98.0572 15.1403 98.3434 14.8197C98.6433 14.4845 98.8751 14.0838 99.0387 13.6175C99.2023 13.1366 99.2841 12.5975 99.2841 12C99.2841 11.4025 99.2023 10.8707 99.0387 10.4044C98.8751 9.9235 98.6433 9.52277 98.3434 9.20219C98.0572 8.86703 97.7164 8.61202 97.321 8.43716C96.9393 8.26229 96.5236 8.17486 96.0737 8.17486C95.6238 8.17486 95.2013 8.26229 94.8059 8.43716C94.4242 8.61202 94.0834 8.86703 93.7835 9.20219C93.4972 9.52277 93.2723 9.9235 93.1087 10.4044C92.9451 10.8707 92.8633 11.4025 92.8633 12C92.8633 12.5975 92.9451 13.1366 93.1087 13.6175C93.2723 14.0838 93.4972 14.4845 93.7835 14.8197C94.0834 15.1403 94.4242 15.388 94.8059 15.5628C95.2013 15.7377 95.6238 15.8251 96.0737 15.8251Z" fill="black"/>
<path d="M111.239 20C110.04 20 108.881 19.8543 107.763 19.5628C106.645 19.2714 105.725 18.8925 105.003 18.4262L106.557 14.6667C107.238 15.0893 107.995 15.4317 108.826 15.694C109.672 15.9417 110.489 16.0656 111.28 16.0656C111.744 16.0656 112.105 16.0364 112.364 15.9781C112.636 15.9053 112.834 15.8106 112.957 15.694C113.08 15.5628 113.141 15.4098 113.141 15.235C113.141 14.9581 112.998 14.7395 112.711 14.5792C112.425 14.4189 112.043 14.2878 111.566 14.1858C111.103 14.0692 110.592 13.9526 110.033 13.8361C109.474 13.7049 108.908 13.5373 108.336 13.3333C107.777 13.1293 107.259 12.8597 106.782 12.5246C106.318 12.1894 105.943 11.7523 105.657 11.2131C105.371 10.6594 105.227 9.9745 105.227 9.15847C105.227 8.21129 105.473 7.35155 105.964 6.57923C106.468 5.79235 107.211 5.16576 108.192 4.69945C109.188 4.23315 110.421 4 111.894 4C112.861 4 113.816 4.10929 114.756 4.32787C115.697 4.54645 116.542 4.8816 117.292 5.33333L115.84 9.07104C115.131 8.69217 114.443 8.40802 113.775 8.21858C113.12 8.02914 112.48 7.93443 111.853 7.93443C111.389 7.93443 111.021 7.97814 110.748 8.06557C110.476 8.15301 110.278 8.26958 110.155 8.4153C110.046 8.56102 109.992 8.72131 109.992 8.89618C109.992 9.15847 110.135 9.36976 110.421 9.53005C110.708 9.67577 111.082 9.79964 111.546 9.90164C112.023 10.0036 112.541 10.1129 113.1 10.2295C113.673 10.3461 114.238 10.5064 114.797 10.7104C115.356 10.9144 115.867 11.184 116.331 11.5191C116.808 11.8543 117.19 12.2914 117.476 12.8306C117.762 13.3698 117.905 14.0401 117.905 14.8415C117.905 15.7741 117.653 16.6339 117.149 17.4208C116.658 18.1931 115.922 18.8197 114.94 19.3005C113.959 19.7669 112.725 20 111.239 20Z" fill="black"/>
<path d="M122.25 19.6503V8.34973H118.058V4.34973H131.267V8.34973H127.075V19.6503H122.25Z" fill="black"/>
<path d="M136.938 10.0328H143.317V13.7486H136.938V10.0328ZM137.265 15.7596H144.422V19.6503H132.521V4.34973H144.156V8.24044H137.265V15.7596Z" fill="black"/>
<path d="M146.279 19.6503V4.34973H153.17C154.506 4.34973 155.658 4.58288 156.626 5.04918C157.608 5.51548 158.364 6.18579 158.896 7.06011C159.427 7.91985 159.693 8.93989 159.693 10.1202C159.693 11.3005 159.427 12.3206 158.896 13.1803C158.364 14.0255 157.608 14.674 156.626 15.1257C155.658 15.5774 154.506 15.8033 153.17 15.8033H148.958L151.105 13.6831V19.6503H146.279ZM154.847 19.6503L151.33 14.0765H156.442L160 19.6503H154.847ZM151.105 14.2514L148.958 11.9126H152.864C153.532 11.9126 154.022 11.7523 154.336 11.4317C154.663 11.1111 154.827 10.674 154.827 10.1202C154.827 9.56648 154.663 9.12933 154.336 8.80874C154.022 8.48816 153.532 8.32787 152.864 8.32787H148.958L151.105 5.98907V14.2514Z" fill="black"/>
<path d="M1.13974 27.597C0.434471 27.1931 0 26.4464 0 25.6384V10.0539C0 9.2459 0.434456 8.49926 1.13974 8.09525L14.7426 0.303007C15.4479 -0.101002 16.3168 -0.101002 17.0221 0.303004L27.4931 6.30118L24.0738 8.25984L15.8824 3.56744L3.41922 10.7068V24.9855L11.5684 29.6536V33.571L1.13974 27.597Z" fill="black"/>
<path d="M14.7059 40.1538L30.8824 31.2308V49.0769L14.7059 58V40.1538Z" fill="#00AD75"/>
<path d="M14.7059 17.8462L30.8824 8.92308V26.7692L14.7059 35.6923V17.8462Z" fill="#00AD75"/>
<path d="M33.8235 29.7436L50 20.8205V38.6667L33.8235 47.5897V29.7436Z" fill="#00AD75"/>
</svg>
